{"title":"FriendlyBetrayal","uid":7353333,"size":270423172,"categoryP":"porn","categoryS":"movies","magnet":"?xt=urn:btih:41ae1da98ea9e1b3c887f2b57f4ae9616e7f50ae&amp;dn=FriendlyBetrayal&amp;tr=udp%3A%2F%2Ftracker.openbittorrent.com%3A80&amp;tr=udp%3A%2F%2Fopen.demonii.com%3A1337&amp;tr=udp%3A%2F%2Ftracker.coppersurfer.tk%3A6969&amp;tr=udp%3A%2F%2Fexodus.desync.com%3A6969","seeders":0,"leechers":0,"uploader":"soulless123","files":1,"time":1339680622,"description":"Screen\n &lt;a href=&quot;\nhttp://bayimg.com/mAPdbAAdc&quot; rel=&quot;nofollow&quot; target=&quot;_NEW&quot;&gt;\nhttp://bayimg.com/mAPdbAAdc&lt;/a&gt;\n\nSeeding Time 24/7\n\nDon't Forget To Say Thanks If You Like My Post\n\n\n\n-=Media Info=-\n\n\nFormat : Windows Media\nFile size : 258 MiB\nDuration : 27mn 9s\nOverall bit rate mode : Constant\nOverall bit rate : 1 328 Kbps\nMaximum Overall bit rate : 1 379 Kbps\nEncoded date : UTC 2008-11-30 03:01:06.328\n\nVideo\nID : 2\nFormat : WMV2\nCodec ID : WMV2\nCodec ID/Info : Windows Media Video 8\nDescription of the codec : Windows Media Video V8\nDuration : 27mn 9s\nBit rate mode : Constant\nBit rate : 1 300 Kbps\nWidth : 640 pixels\nHeight : 480 pixels\nDisplay aspect ratio : 4:3\nFrame rate : 29.970 fps\nBit depth : 8 bits\nBits/(Pixel*Frame) : 0.141\nStream size : 253 MiB (98%)\nLanguage : English (CA)\n\nAudio\nID : 1\nFormat : WMA\nFormat version : Version 2\nCodec ID : 161\nCodec ID/Info : Windows Media Audio\nDescription of the codec : Windows Media Audio 9.1 - 64 kbps, 44 kHz, stereo (A/V) 1-pass CBR\nDuration : 27mn 9s\nBit rate mode : Constant\nBit rate : 64.0 Kbps\nChannel(s) : 2 channels\nSampling rate : 44.1 KHz\nBit depth : 16 bits\nStream size : 12.4 MiB (5%)\nLanguage : English (CA)","torrent":{"xt":"urn:btih:41ae1da98ea9e1b3c887f2b57f4ae9616e7f50ae","amp;dn":"FriendlyBetrayal","amp;tr":["udp%3A%2F%2Ftracker.openbittorrent.com%3A80","udp%3A%2F%2Fopen.demonii.com%3A1337","udp%3A%2F%2Ftracker.coppersurfer.tk%3A6969","udp%3A%2F%2Fexodus.desync.com%3A6969"],"infoHash":"41ae1da98ea9e1b3c887f2b57f4ae9616e7f50ae","infoHashBuffer":{"type":"Buffer","data":[65,174,29,169,142,169,225,179,200,135,242,181,127,74,233,97,110,127,80,174]},"announce":[],"urlList":[]}}